<svg version="1.1" id="Layer_1" xmlns="http://www.w3.org/2000/svg" x="0" y="0" viewBox="0 0 100 100" xml:space="preserve"><style>.st0{fill:#202f55}.st1{fill:none;stroke:#c5b482;stroke-width:5;stroke-miterlimit:10}</style><path class="st0" d="M99.9 56.4c0 26.1-21.3 43.6-50 43.6S.1 81.5.1 55.4 21.3 15.1 50 15.1s49.9 15.2 49.9 41.3zM-18.5 89.5c-16.4 14.7-51.3 22.2-67.7 8.8-14.8-12.1-19.1-24.1-19.1-42.8s8.2-44.2 11.7-46.2C-88 6.2-70 22.2-65 21.8c6-.5 14-1.3 17-3.9 3.7-3.2 7.8-12.2 13.2-12.5 3.6-.2 21.1 12.8 26.1 30.6 3.8 13 6.7 38.6-9.8 53.5z"/><circle class="st1" cx="34.5" cy="47" r="17.5"/><path class="st1" d="M51.6 47.7l10.9-.8M1.9 43.2l13.7 2.6"/><path class="st0" d="M5.1 39.8L3.9 3.7l33 13.9m20.2-1.1L77.9 0l10.6 25.9"/><circle class="st1" cx="79.2" cy="43.2" r="17.5"/></svg>